<svg version="1.1" xmlns="http://www.w3.org/2000/svg" style="display:none;">
    <symbol id="fileapi-upload-button" viewBox="0 0 64 64">
        <g>
            <path d="M16.87,58.2a30.38,30.38,0,0,1-3.78-2.58.75.75,0,0,0-.94,1.17,31.93,31.93,0,0,0,4,2.71.75.75,0,0,0,.75-1.3Z"/>
            <path d="M32,.25A31.75,31.75,0,0,0,6.49,50.91.75.75,0,1,0,7.69,50,30.25,30.25,0,1,1,32,62.25a30.36,30.36,0,0,1-7.56-1,.75.75,0,0,0-.37,1.45A31.75,31.75,0,1,0,32,.25Z"/>
            <path d="M30.13,43.4a.6.6,0,0,0,.6.6h2.55a.6.6,0,0,0,.6-.6V33.88H43.4a.6.6,0,0,0,.6-.6V30.72a.6.6,0,0,0-.6-.6H33.88V20.6a.6.6,0,0,0-.6-.6H30.73a.6.6,0,0,0-.6.6v9.53H20.6a.6.6,0,0,0-.6.6v2.55a.6.6,0,0,0,.6.6h9.52Z"/>
        </g>
    </symbol>
</svg>