<svg version="1.1" xmlns="http://www.w3.org/2000/svg" xmlns:xlink="http://www.w3.org/1999/xlink" style="display:none;">
    <symbol id="folder-personal" viewBox="0 0 16 16">
        <g>
            <path d="M.53,14H15.47a.53.53,0,0,0,.53-.53V3.87a.54.54,0,0,0-.53-.54H6.84L5.51,2h-5A.53.53,0,0,0,0,2.53V13.47A.53.53,0,0,0,.53,14Z"/>
            <path fill="#010101" style="opacity:0.16;" d="M.53,4.67h5L6.84,3.33,5.51,2h-5A.53.53,0,0,0,0,2.53V5.2A.53.53,0,0,1,.53,4.67Z"/>
            <path fill="currentColor" d="M9.3,9.05,9.1,9a1.55,1.55,0,0,0,.44-.71,1.45,1.45,0,0,0,.08-.47,1.34,1.34,0,0,0-.06-.4A1.61,1.61,0,1,0,6.91,9a2.85,2.85,0,0,0-1.82,2.66c0,.13,0,.26,0,.39h5.78c0-.13,0-.26,0-.39a3.08,3.08,0,0,0-.07-.61A2.85,2.85,0,0,0,9.3,9.05Z"/>
        </g>
    </symbol>
</svg>