<svg version="1.1" xmlns="http://www.w3.org/2000/svg" style="display:none;">
    <symbol id="block" viewBox="0 0 16 16">
        <g>
            <path d="M2.34,2.34a8,8,0,1,0,11.31,0A8,8,0,0,0,2.34,2.34Zm1.39,9.93a6,6,0,0,1-.62-7.78l8.4,8.4A6,6,0,0,1,3.73,12.27Zm9.17-.76-8.4-8.4A6,6,0,0,1,12.89,11.51Z"/>
        </g>
    </symbol>

    <symbol id="administrator" viewBox="0 0 16 16">
        <g>
            <path d="M6.54,8.17a5.93,5.93,0,0,1,.77-0.94,2.13,2.13,0,0,0,2.08.12l0.07-.05A4.9,4.9,0,0,0,6.85,4.82a2.67,2.67,0,0,0,.88-2,2.73,2.73,0,0,0-5.46,0,2.67,2.67,0,0,0,.88,2A4.82,4.82,0,0,0,.12,10H7A1.77,1.77,0,0,0,6.54,8.17Z"/>
            <path d="M14.76,9.86a1.49,1.49,0,0,1,.13-1.52,4.63,4.63,0,0,0-.73-0.6A1.4,1.4,0,0,1,12.7,8a1.37,1.37,0,0,1-1-1.08,4.57,4.57,0,0,0-.94.09A1.64,1.64,0,0,1,10,8.42a1.65,1.65,0,0,1-1.61-.09,4.59,4.59,0,0,0-.59.73,1.37,1.37,0,0,1,.36,1.41,1.4,1.4,0,0,1-1,1.07,4.61,4.61,0,0,0,.1.94,1.49,1.49,0,0,1,1.34.72,1.65,1.65,0,0,1-.08,1.61,4.62,4.62,0,0,0,.73.6,1.35,1.35,0,0,1,1.41-.36,1.37,1.37,0,0,1,1,1.08A4.56,4.56,0,0,0,12.53,16a1.54,1.54,0,0,1,2.42-1.3A4.56,4.56,0,0,0,15.54,14a1.37,1.37,0,0,1-.36-1.41,1.4,1.4,0,0,1,1-1.07,4.62,4.62,0,0,0-.1-0.94A1.49,1.49,0,0,1,14.76,9.86Zm-1.43.77a1.9,1.9,0,1,1-2.58-.78A1.9,1.9,0,0,1,13.33,10.64Z"/>
        </g>
    </symbol>

    <symbol id="document-add" viewBox="0 0 16 16">
        <g>
            <path d="M9,12.8V9H8.66l-3,3.81L3,11.62l-2,2.3V7H6V6H0V16H13V13H9.2A0.2,0.2,0,0,1,9,12.8Z"/>
            <path d="M15.72,3.38H12.62V0.28A0.28,0.28,0,0,0,12.34,0H10.66a0.28,0.28,0,0,0-.28.28V3.38H7.28A0.28,0.28,0,0,0,7,3.66V5.34a0.28,0.28,0,0,0,.28.28h3.09V8.72a0.28,0.28,0,0,0,.28.28h1.69a0.28,0.28,0,0,0,.28-0.28V5.63h3.09A0.28,0.28,0,0,0,16,5.34V3.66A0.28,0.28,0,0,0,15.72,3.38Z"/>
        </g>
    </symbol>

    <symbol id="folder" viewBox="0 0 16 16">
        <g>
            <path d="M6.4,1.6H1.6A1.6,1.6,0,0,0,0,3.2v9.6a1.6,1.6,0,0,0,1.6,1.6H14.4A1.6,1.6,0,0,0,16,12.8v-8a1.6,1.6,0,0,0-1.6-1.6H8Z"/>
        </g>
    </symbol>

    <symbol id="folder-add" viewBox="0 0 16 16">
        <g>
            <path d="M8.45,10.36v-2h-3L4.37,7.25H1.09A1.09,1.09,0,0,0,0,8.35v6.56A1.1,1.1,0,0,0,1.09,16H9.84a1.1,1.1,0,0,0,1.09-1.09V11.64H9.73A1.28,1.28,0,0,1,8.45,10.36Z"/>
            <path d="M15.72,4.2H12.62V1.1A0.28,0.28,0,0,0,12.34.82H10.66a0.28,0.28,0,0,0-.28.28V4.2H7.28A0.28,0.28,0,0,0,7,4.48V6.16a0.28,0.28,0,0,0,.28.28h3.09V9.54a0.28,0.28,0,0,0,.28.28h1.69a0.28,0.28,0,0,0,.28-0.28V6.45h3.09A0.28,0.28,0,0,0,16,6.16V4.48A0.28,0.28,0,0,0,15.72,4.2Z"/>
        </g>
    </symbol>

    <symbol id="user" viewBox="0 0 16 16">
        <g>
            <path d="M11,7.61a4.38,4.38,0,1,0-5.91,0A7.88,7.88,0,0,0,.17,16H15.83A7.88,7.88,0,0,0,11,7.61Z"/>
        </g>
    </symbol>

    <symbol id="user-add" viewBox="0 0 16 16">
        <g>
            <path d="M6.59,11A2.6,2.6,0,0,0,7.45,9,2.66,2.66,0,0,0,2.14,9,2.6,2.6,0,0,0,3,11,4.69,4.69,0,0,0,0,16H9.53a4.67,4.67,0,0,0,0-.64A4.73,4.73,0,0,0,6.59,11Z"/>
            <path d="M15.73,3.21H12.79V0.27A0.27,0.27,0,0,0,12.52,0h-1.6a0.27,0.27,0,0,0-.27.27V3.21H7.71a0.27,0.27,0,0,0-.27.27v1.6a0.27,0.27,0,0,0,.27.27h2.94V8.29a0.27,0.27,0,0,0,.27.27h1.6a0.27,0.27,0,0,0,.27-0.27V5.35h2.94A0.27,0.27,0,0,0,16,5.08V3.48A0.27,0.27,0,0,0,15.73,3.21Z"/>
        </g>
    </symbol>

    <symbol id="user-delete" viewBox="0 0 16 16">
        <g>
            <path d="M6.84,10.75a2.69,2.69,0,0,0,.89-2,2.76,2.76,0,0,0-5.51,0,2.7,2.7,0,0,0,.89,2A4.86,4.86,0,0,0,0,16H9.88a4.85,4.85,0,0,0,0-.66A4.9,4.9,0,0,0,6.84,10.75Z"/>
            <path d="M13.76,3.81l2.16-2.16a0.28,0.28,0,0,0,0-.39L14.74,0.08a0.28,0.28,0,0,0-.39,0L12.19,2.24,10,0.08a0.28,0.28,0,0,0-.39,0L8.47,1.26a0.28,0.28,0,0,0,0,.39l2.16,2.16L8.47,6a0.28,0.28,0,0,0,0,.39L9.65,7.53a0.28,0.28,0,0,0,.39,0l2.16-2.16,2.16,2.16a0.28,0.28,0,0,0,.39,0l1.18-1.18a0.28,0.28,0,0,0,0-.39Z"/>
        </g>
    </symbol>

    <symbol id="group" viewBox="0 0 16 16">
        <g>
            <path d="M8.15,7.71A3.28,3.28,0,0,0,6.6,2.06a3.29,3.29,0,0,0-4,3.22A3.27,3.27,0,0,0,3.72,7.7,5.92,5.92,0,0,0,.06,14H11.8A5.92,5.92,0,0,0,8.15,7.71Z"/>
            <path d="M12.91,6.75a2.73,2.73,0,0,0-3.2-4.38,4.7,4.7,0,0,1,.61,4.84A7.38,7.38,0,0,1,13.25,12H16A4.93,4.93,0,0,0,12.91,6.75Z"/>
        </g>
    </symbol>

    <symbol id="group-add" viewBox="0 0 16 16">
        <g>
            <path d="M15.56,3.27H12.63V0.34A0.27,0.27,0,0,0,12.36.07h-1.6a0.27,0.27,0,0,0-.27.27V3.27H7.56a0.27,0.27,0,0,0-.27.27v1.6a0.27,0.27,0,0,0,.27.27h2.94V8.34a0.27,0.27,0,0,0,.27.27h1.6a0.27,0.27,0,0,0,.27-0.27V5.41h2.94a0.27,0.27,0,0,0,.27-0.27V3.54A0.27,0.27,0,0,0,15.56,3.27Z"/>
            <path d="M10.21,10.75a1.84,1.84,0,0,0,.43-0.65A1.76,1.76,0,0,1,9,8.34V7.46H8.93A1.9,1.9,0,0,0,7.14,8.7a2.57,2.57,0,0,0-5.08.54,2.51,2.51,0,0,0,.83,1.86A4.53,4.53,0,0,0,0,16H9.21a4.5,4.5,0,0,0-.06-1.58H12.3A3.42,3.42,0,0,0,10.21,10.75Zm-3.46.53-0.38-.17a2.53,2.53,0,0,0,.74-1.2,1.9,1.9,0,0,0,.53.84A3.41,3.41,0,0,0,6.75,11.28Z"/>
        </g>
    </symbol>

    <symbol id="group-delete" viewBox="0 0 16 16">
        <g>
            <path d="M13.88,3.66L16,1.59a0.27,0.27,0,0,0,0-.38L14.82,0.08a0.27,0.27,0,0,0-.38,0L12.37,2.15,10.29,0.08a0.27,0.27,0,0,0-.38,0L8.78,1.21a0.27,0.27,0,0,0,0,.38l2.07,2.07L8.78,5.74a0.27,0.27,0,0,0,0,.38L9.92,7.24a0.27,0.27,0,0,0,.38,0l2.07-2.07,2.07,2.07a0.27,0.27,0,0,0,.38,0L16,6.11a0.27,0.27,0,0,0,0-.38Z"/>
            <path d="M8.27,9.74a3.36,3.36,0,0,0,.84-1.23A1.78,1.78,0,0,1,8.86,8.3L7.72,7.17a1.77,1.77,0,0,1,0-2.5l0.15-.15A3.32,3.32,0,0,0,3.79,9.73,6,6,0,0,0,.09,16.1H12A6,6,0,0,0,8.27,9.74Z"/>
            <path d="M13,8.91a2.72,2.72,0,0,0,.44-0.53L13.38,8.3l-1-1-1,1a1.75,1.75,0,0,1-.72.43l-0.14.34-0.07.16a7.44,7.44,0,0,1,3,4.77H16A4.78,4.78,0,0,0,13,8.91Z"/>
        </g>
    </symbol>

    <symbol id="phone" viewBox="0 0 16 16">
        <g>
            <path d="M14.4,0.43C13.24-.73,8.92.37,4.65,4.64S-0.73,13.24.43,14.4c1,1,2.23,2.76,4.07.47s0.94-2.93-.1-4c-0.72-.72.79-2.56,2.37-4.14s3.42-3.1,4.14-2.37c1,1,1.68,1.94,4,.1S15.41,1.44,14.4.43Z"/>
        </g>
    </symbol>

    <symbol id="phone-mobile" viewBox="0 0 16 16">
        <g>
            <path d="M11.52,0h-7a1,1,0,0,0-1,1V15a1,1,0,0,0,1,1h7a1,1,0,0,0,1-1V1A1,1,0,0,0,11.52,0ZM8.82,14.74a0.12,0.12,0,0,1-.12.12H7.3a0.12,0.12,0,0,1-.12-0.12V14a0.12,0.12,0,0,1,.12-0.12H8.7a0.12,0.12,0,0,1,.12.12v0.71ZM11.5,13h-7V2h7V13Z"/>
        </g>
    </symbol>

    <symbol id="phone-add" viewBox="0 0 16 16">
        <g>
            <path d="M9.32,3.77c0.89,0.89,1.43,1.66,3.39.09S13.16,1.24,12.3.38,7.62,0.33,4,4s-4.59,7.35-3.6,8.34,1.91,2.36,3.48.41,0.8-2.5-.09-3.39c-0.62-.62.67-2.19,2-3.54S8.7,3.15,9.32,3.77Z"/>
            <path d="M15.71,10.27H12.57V7.12a0.29,0.29,0,0,0-.29-0.29H10.56a0.29,0.29,0,0,0-.29.29v3.15H7.13a0.29,0.29,0,0,0-.29.29v1.72a0.29,0.29,0,0,0,.29.29h3.15V15.7a0.29,0.29,0,0,0,.29.29h1.72a0.29,0.29,0,0,0,.29-0.29V12.56h3.15A0.29,0.29,0,0,0,16,12.27V10.55A0.29,0.29,0,0,0,15.71,10.27Z"/>
        </g>
    </symbol>

    <symbol id="phone-delete" viewBox="0 0 16 16">
        <g>
            <path d="M9.37,3.78c0.89,0.89,1.44,1.67,3.41.09s0.46-2.63-.41-3.5S7.66,0.32,4,4-0.63,11.38.37,12.38s1.92,2.37,3.5.41,0.8-2.51-.09-3.41c-0.62-.62.68-2.2,2-3.56S8.75,3.16,9.37,3.78Z"/>
            <path d="M13.68,12l2.24-2.24a0.29,0.29,0,0,0,0-.41L14.7,8.18a0.29,0.29,0,0,0-.41,0l-2.24,2.24L9.81,8.18a0.29,0.29,0,0,0-.41,0L8.18,9.4a0.29,0.29,0,0,0,0,.41L10.42,12,8.18,14.29a0.29,0.29,0,0,0,0,.41L9.4,15.92a0.29,0.29,0,0,0,.41,0l2.24-2.24,2.24,2.24a0.29,0.29,0,0,0,.41,0l1.22-1.22a0.29,0.29,0,0,0,0-.41Z"/>
        </g>
    </symbol>

    <symbol id="add" viewBox="0 0 16 16">
        <g>
            <path d="M15.6,6.75H9.25V0.4A0.4,0.4,0,0,0,8.85,0H7.15a0.4,0.4,0,0,0-.4.4V6.75H0.4a0.4,0.4,0,0,0-.4.4v1.7a0.4,0.4,0,0,0,.4.4H6.75V15.6a0.4,0.4,0,0,0,.4.4h1.7a0.4,0.4,0,0,0,.4-0.4V9.25H15.6a0.4,0.4,0,0,0,.4-0.4V7.15A0.4,0.4,0,0,0,15.6,6.75Z"/>
        </g>
    </symbol>

    <symbol id="edit" viewBox="0 0 16 16">
        <g>
            <path d="M0,12.74v3.33H3.33l9.83-9.83L9.83,2.91ZM15.74,3.66a0.89,0.89,0,0,0,0-1.25L13.66,0.33a0.89,0.89,0,0,0-1.25,0L10.78,2l3.33,3.33Z"/>
        </g>
    </symbol>

    <symbol id="cancel" viewBox="0 0 16 16">
        <g>
            <path d="M9.77,8l4.49-4.49a0.4,0.4,0,0,0,0-.57l-1.2-1.2a0.4,0.4,0,0,0-.57,0L8,6.23,3.51,1.74a0.4,0.4,0,0,0-.57,0l-1.2,1.2a0.4,0.4,0,0,0,0,.57L6.23,8,1.74,12.49a0.4,0.4,0,0,0,0,.57l1.2,1.2a0.4,0.4,0,0,0,.57,0L8,9.77l4.49,4.49a0.4,0.4,0,0,0,.57,0l1.2-1.2a0.4,0.4,0,0,0,0-.57Z"/>
        </g>
    </symbol>

    <symbol id="delete" viewBox="0 0 16 16">
        <g>
            <path d="M2.19,15.3a0.7,0.7,0,0,0,.7.7h10a0.7,0.7,0,0,0,.7-0.7V5.17H2.19V15.3Zm8.36-8.21h1.25v7H10.56v-7Zm-3.27,0H8.54v7H7.29v-7ZM4,7.09H5.27v7H4v-7Z"/>
            <path d="M14.18,1H10.41V0h-5a5.08,5.08,0,0,1,0,1H1.72a0.74,0.74,0,0,0-.77.7V3.51H15V1.67A0.75,0.75,0,0,0,14.18,1Z"/>
        </g>
    </symbol>

    <symbol id="like" viewBox="0 0 16 16">
        <g>
            <rect x="0.23" y="6.3" width="2.91" height="9.7" rx="0.39" ry="0.39"/>
            <path d="M15.28,10.89a2.71,2.71,0,0,0,.49-1.35,1.76,1.76,0,0,0-.5-1.25,3.29,3.29,0,0,0,.24-1.2C15.36,6.26,14.59,6,13.61,6c-0.6,0-1.67.14-2.46,0.21a1.19,1.19,0,0,1-1.42-.67c0-.4,1.65-3.36-0.37-5.46C9.15-.1,7.69-0.09,7.69.72A21.2,21.2,0,0,1,7.64,3.5,7.32,7.32,0,0,1,5.08,7.43v7.11s0.54,0.19,1.8.59,5.85,0.16,6.45,0a1.7,1.7,0,0,0,1.62-1,2.83,2.83,0,0,0,0-1A3.82,3.82,0,0,0,15.51,12,1.59,1.59,0,0,0,15.28,10.89Z"/>
        </g>
    </symbol>

    <symbol id="attachment" viewBox="0 0 16 16">
        <g>
            <path d="M2,14.8a4.09,4.09,0,0,1-.18-5.59h0l8.35-8.35A2.93,2.93,0,0,1,14.33,5L6.27,13.06a1.78,1.78,0,0,1-2.52-2.52L8.84,5.45a0.63,0.63,0,0,1,.89.89L4.64,11.43a0.52,0.52,0,0,0,.74.74l8.05-8.05a1.68,1.68,0,0,0-2.37-2.37L2.9,9.91a2.83,2.83,0,0,0,4,4l5.4-5.4a0.63,0.63,0,0,1,.89.89L7.61,15h0A4.09,4.09,0,0,1,2,14.8Z"/>
        </g>
    </symbol>

    <symbol id="article" viewBox="0 0 16 16">
        <g>
            <polygon points="10.99 0 10.99 0 10.99 4.01 13.99 4.01 10.99 0"/>
            <path d="M10,5V0H2.48A0.47,0.47,0,0,0,2,.47V15.53a0.47,0.47,0,0,0,.47.47h11A0.47,0.47,0,0,0,14,15.53V5H10Zm-7-1H7V4.87H3.06V4Zm0,2.31h7.58V7.18H3.06V6.3Zm0,4.62H9.17V11.8H3.06V10.92Zm9.89,3.19H3.06V13.22h9.89v0.88Zm0-4.62H3.06V8.61h9.89V9.49Z"/>
        </g>
    </symbol>

    <symbol id="event" viewBox="0 0 16 16">
        <g>
            <path d="M15.75,2H12.13V0.57A0.57,0.57,0,0,0,11.56,0H11.28a0.57,0.57,0,0,0-.57.57V2H5.29V0.57A0.57,0.57,0,0,0,4.72,0H4.44a0.57,0.57,0,0,0-.57.57V2H0.25A0.25,0.25,0,0,0,0,2.26V15.75A0.25,0.25,0,0,0,.25,16h15.5A0.25,0.25,0,0,0,16,15.75V2.26A0.25,0.25,0,0,0,15.75,2Zm-6.21.78H13.3V4.21H9.54V2.79Zm-6.84,0H6.46V4.21H2.7V2.79ZM15,15H1V5H15V15Z"/>
        </g>
    </symbol>

    <symbol id="birthday" viewBox="0 0 16 16">
        <g>
            <rect x="9.26" y="9.89" width="5.94" height="5.94"/>
            <rect x="0.81" y="9.89" width="5.94" height="5.94"/>
            <path d="M13.77,5a1.8,1.8,0,0,0,1.09-1.65V2.11a1.81,1.81,0,0,0-1.8-1.8H12.86a8,8,0,0,0-4,2.45,1.1,1.1,0,0,0-.22,0H7.32a1.1,1.1,0,0,0-.19,0,8.11,8.11,0,0,0-4-2.44H2.95a1.81,1.81,0,0,0-1.8,1.8V3.39A1.8,1.8,0,0,0,2.23,5H0V8.57H6.74V5H6.25A1.76,1.76,0,0,0,6.64,4.8,1.14,1.14,0,0,0,7.32,5H8.68A1.14,1.14,0,0,0,9.35,4.8,1.79,1.79,0,0,0,9.74,5H9.26V8.57H16V5H13.77Zm-0.9-3.53h0.19a0.6,0.6,0,0,1,.6.6V3.39a0.6,0.6,0,0,1-.6.6H10.46a0.63,0.63,0,0,1-.62-0.57A8.39,8.39,0,0,1,12.86,1.51Zm-10.52.6a0.6,0.6,0,0,1,.6-0.6H3.12a8.47,8.47,0,0,1,3,1.88,0.6,0.6,0,0,1-.6.6H2.95a0.6,0.6,0,0,1-.6-0.6V2.11Z"/>
        </g>
    </symbol>

    <symbol id="blog" viewBox="0 0 16 16">
        <g>
            <polygon points="10.99 0 10.99 0 10.99 4.01 13.99 4.01 10.99 0"/>
            <path d="M10,5V0H2.48A0.47,0.47,0,0,0,2,.47V15.53a0.47,0.47,0,0,0,.47.47h11A0.47,0.47,0,0,0,14,15.53V5H10ZM6.83,1.68H9.14V2.57H6.83V1.68ZM6.83,4H9.14V4.88H6.83V4ZM5.34,14.11H3V10.92H5.34v3.19Zm0-4.62H3V6.3H5.34V9.49Zm0-4.62H3.06V1.68H5.36V4.88Zm7.56,9.23H6.79V13.22h6.14v0.88Zm0-2.31H6.79V10.92h6.14V11.8Zm0-2.31H6.81V8.61h6.11V9.49Zm0-2.31H6.81V6.3h6.11V7.18Z"/>
        </g>
    </symbol>

    <symbol id="previous" viewBox="0 0 16 16">
        <g>
            <path d="M0,6.68L6,13V9H8c4,0,7,2,8,6C16,9.1,14,5,6,5V1Z"/>
        </g>
    </symbol>

    <symbol id="forward" viewBox="0 0 16 16">
        <g>
            <path d="M10,1V5C2,5,0,9.1,0,15c1-4,4-6,8-6h2v4l6-6.32Z"/>
        </g>
    </symbol>

    <symbol id="settings" viewBox="0 0 16 16">
        <g>
            <defs>
                <style>.cls-1{fill:none;}</style>
            </defs>
            <polygon class="cls-1" points="17 -1.31 17 -6 -7 -6 -7 18 -6.72 18 -6.72 -1.31 17 -1.31"/>
            <path d="M14.86,9.2L14.3,8.6a0.09,0.09,0,0,0,0,0c0-.13,0-0.27,0-0.41s0-.08,0-0.12,0-.2,0-0.3V7.62c0-.07,0-0.13,0-0.2l0.56-.6a1.26,1.26,0,0,0,.61-1L14.85,4.3A1.26,1.26,0,0,0,13.7,4L12.88,4l-0.19-.22h0l-0.07-.07L12.5,3.56,12.34,3.4l-0.27-.24h0v0l0-.82a1.26,1.26,0,0,0-.29-1.15l-1.5-.62a1.26,1.26,0,0,0-1,.6L8.6,1.7l-0.4,0H7.82l-0.34,0H7.42l-0.6-.56a1.26,1.26,0,0,0-1-.61l-1.5.62A1.26,1.26,0,0,0,4,2.3L4,3.12l0,0L3.65,3.4l-0.1.1-0.2.2-0.09.11L3.13,4,2.31,4a1.26,1.26,0,0,0-1.15.3L0.53,5.77a1.26,1.26,0,0,0,.6,1L1.7,7.4c0,0.09,0,.19,0,0.28s0,0,0,0c0,0.16,0,.32,0,0.48s0,0.14,0,.21,0,0.11,0,.17a0.09,0.09,0,0,0,0,0l-0.56.6a1.26,1.26,0,0,0-.61,1l0.62,1.5A1.26,1.26,0,0,0,2.3,12l0.82,0,0,0,0.26,0.3,0.1,0.1,0.2,0.2,0.11,0.09L4,12.86l0,0.82a1.26,1.26,0,0,0,.3,1.15l1.5,0.62a1.26,1.26,0,0,0,1-.6l0.6-.56h0l0.23,0H8.58l0.6,0.56a1.26,1.26,0,0,0,1,.61l1.5-.62A1.26,1.26,0,0,0,12,13.7l0-.82,0.2-.18,0,0,0.07-.06,0.11-.11,0.16-.16,0.23-.26,0,0h0l0.82,0a1.26,1.26,0,0,0,1.15-.3l0.62-1.5A1.26,1.26,0,0,0,14.86,9.2ZM11.29,8A3.29,3.29,0,1,1,8,4.71,3.29,3.29,0,0,1,11.29,8Z"/>
        </g>
    </symbol>

    <symbol id="download" viewBox="0 0 16 16">
        <g>
            <path d="M14,5H10V0.25A0.25,0.25,0,0,0,9.76,0H6.25A0.25,0.25,0,0,0,6,.25V5H2l6,6Z"/>
            <path d="M13.74,14H2.24a0.24,0.24,0,0,0-.25.22v1.57a0.24,0.24,0,0,0,.25.22h11.5A0.24,0.24,0,0,0,14,15.78V14.21A0.24,0.24,0,0,0,13.74,14Z"/>
        </g>
    </symbol>

    <symbol id="triangle-up" viewBox="0 0 16 16">
        <g>
            <polygon points="8 2 16 14 0 14 8 2"/>
        </g>
    </symbol>

    <symbol id="triangle-down" viewBox="0 0 16 16">
        <g>
            <polygon points="8 14 0 2 16 2 8 14"/>
        </g>
    </symbol>

    <symbol id="triangle-left" viewBox="0 0 16 16">
        <g>
            <polygon points="2 8 14 0 14 16 2 8"/>
        </g>
    </symbol>

    <symbol id="triangle-right" viewBox="0 0 16 16">
        <g>
            <polygon points="14 8 2 16 2 0 14 8"/>
        </g>
    </symbol>

    <symbol id="arrow-up" viewBox="0 0 16 16">
        <g>
            <path d="M14.48,12.18a.89.89,0,0,0,1.26-1.26L8.63,3.82a.89.89,0,0,0-1.26,0L.26,10.92a.89.89,0,1,0,1.26,1.26L8,5.7Z"/>
        </g>
    </symbol>

    <symbol id="arrow-down" viewBox="0 0 16 16">
        <g>
            <path d="M1.52,3.82A.89.89,0,0,0,.26,5.08l7.11,7.11a.89.89,0,0,0,1.26,0l7.11-7.11a.89.89,0,1,0-1.26-1.26L8,10.3Z"/>
        </g>
    </symbol>

    <symbol id="arrow-left" viewBox="0 0 16 16">
        <g>
            <path d="M12.18,1.52A.89.89,0,0,0,10.92.26L3.82,7.37a.89.89,0,0,0,0,1.26l7.11,7.11a.89.89,0,1,0,1.26-1.26L5.7,8Z"/>
        </g>
    </symbol>

    <symbol id="arrow-right" viewBox="0 0 16 16">
        <g>
            <path d="M3.82,1.52A.89.89,0,0,1,5.08.26l7.11,7.11a.89.89,0,0,1,0,1.26L5.08,15.74a.89.89,0,1,1-1.26-1.26L10.3,8Z"/>
        </g>
    </symbol>

    <symbol id="locked" viewBox="0 0 16 16">
        <g>
            <path d="M13.54,6H12V2.31A2.31,2.31,0,0,0,9.67,0H6.35A2.34,2.34,0,0,0,4,2.31V6H2.46A0.46,0.46,0,0,0,2,6.46v9.08a0.46,0.46,0,0,0,.46.46H13.54A0.46,0.46,0,0,0,14,15.54V6.46A0.46,0.46,0,0,0,13.54,6ZM10,6H6V2.68A0.66,0.66,0,0,1,6.65,2H9.31a0.68,0.68,0,0,1,.68.68V6Z"/>
        </g>
    </symbol>

    <symbol id="semi-open" viewBox="0 0 16 16">
        <g>
            <path d="M13.68,0H10.36A2.34,2.34,0,0,0,8,2.31V6H0.46A0.46,0.46,0,0,0,0,6.46v9.09A0.46,0.46,0,0,0,.46,16H11.56A0.44,0.44,0,0,0,12,15.55V6.46A0.44,0.44,0,0,0,11.56,6H10V2.67A0.66,0.66,0,0,1,10.66,2h2.67a0.68,0.68,0,0,1,.68.68V6h2V2.31A2.32,2.32,0,0,0,13.68,0Z"/>
        </g>
    </symbol>

    <symbol id="link" viewBox="0 0 16 16">
        <g>
            <path d="M15.7,0.3a1,1,0,0,0-1.43,0L12.8,1.77a5.72,5.72,0,0,0-7.49.52l-3,3a5.73,5.73,0,0,0-.52,7.49L0.3,14.28A1,1,0,0,0,1.72,15.7l1.46-1.46a5.72,5.72,0,0,0,7.49-.52l3-3a5.73,5.73,0,0,0,.52-7.49L15.7,1.72A1,1,0,0,0,15.7.3Zm-3.42,9-3,3a3.7,3.7,0,0,1-4.61.5l1.57-1.57A1,1,0,1,0,4.78,9.79L3.21,11.36a3.71,3.71,0,0,1,.5-4.61l3-3a3.7,3.7,0,0,1,4.61-.5L9.79,4.78a1,1,0,0,0,1.43,1.43l1.56-1.56A3.71,3.71,0,0,1,12.28,9.26Z"/>
        </g>
    </symbol>

    <symbol id="logout" viewBox="0 0 16 16">
        <g>
            <path d="M8,8.61A1.11,1.11,0,0,1,6.89,7.5V1.11a1.11,1.11,0,1,1,2.22,0V7.5A1.11,1.11,0,0,1,8,8.61Z"/>
            <path d="M8,16A7.32,7.32,0,0,1,3.28,3.07a1.11,1.11,0,0,1,1.43,1.7,5.11,5.11,0,1,0,6.57,0,1.11,1.11,0,0,1,1.43-1.7A7.33,7.33,0,0,1,8,16Z"/>
        </g>
    </symbol>

    <symbol id="lync" viewBox="0 0 16 16">
        <g>
            <path d="M0,1.53L9.4,0.27V15.73L0,14.47V1.53Zm6,8.7-2.2-.12v-5l-0.78,0v5.68L6,11V10.24Z"/>
            <path d="M12.72,3.39H10.35v1h2.37A2.2,2.2,0,0,1,15,6.4V7.74a2.2,2.2,0,0,1-2.32,2v1.58L11,9.78H10.35v1h0.29l3,2.81V10.61A3.06,3.06,0,0,0,16,7.74V6.4A3.16,3.16,0,0,0,12.72,3.39Z"/>
        </g>
    </symbol>

    <symbol id="mail" viewBox="0 0 16 16">
        <g>
            <path d="M1,2.89a1,1,0,0,0-1,1v8.17a1,1,0,0,0,1,1H15a1,1,0,0,0,1-1V3.92a1,1,0,0,0-1-1H1ZM1.91,4.14L8,7.93,14,4.21a0.35,0.35,0,0,1,.44.11,0.31,0.31,0,0,1-.11.44L8.31,8.48a0.78,0.78,0,0,1-.37.15,0.78,0.78,0,0,1-.37-0.15l-6-3.83a0.33,0.33,0,0,1-.11-0.44A0.39,0.39,0,0,1,1.91,4.14Z"/>
        </g>
    </symbol>

    <symbol id="image" viewBox="0 0 16 16">
        <g>
            <path d="M0,0V16H16V0H0ZM14.65,9L12.32,2.79,7.24,9,3.83,7.46,1.35,10.39v-9H14.65V9Z"/>
        </g>
    </symbol>

    <symbol id="image-gallery" viewBox="0 0 16 16">
        <g>
            <path d="M2.16,2.16V16H16V2.16H2.16ZM14.84,10l-2-5.39L8.43,10l-3-1.36L3.33,11.15V3.33H14.84V10Z"/>
            <polygon points="1.08 1.08 13.84 1.08 13.84 0 0 0 0 11.21 0 11.39 0 13.84 1.08 13.84 1.08 1.08"/>
        </g>
    </symbol>

    <symbol id="more" viewBox="0 0 16 16">
        <g>
            <circle cx="1.56" cy="8.07" r="1.56"/>
            <circle cx="8" cy="8.07" r="1.56"/>
            <circle cx="14.44" cy="8.07" r="1.56"/>
        </g>
    </symbol>

    <symbol id="network" viewBox="0 0 16 16">
        <g>
            <path d="M13,10a3,3,0,0,0-2.57,1.46h0L9.81,11a3.19,3.19,0,0,1-.94-2.94A5.68,5.68,0,0,0,6.55,3.21h0S6.29,3.1,6,3H6a3,3,0,1,0-.46,1.59A3.65,3.65,0,0,1,7.25,7.36c0,0.26,0,.59,0,1,0,3.58,2.4,4.5,2.4,4.5A1.31,1.31,0,0,0,10,13,3,3,0,1,0,13,10Z"/>
        </g>
    </symbol>

    <symbol id="notification" viewBox="0 0 16 16">
        <g>
            <path d="M12.8,11V6.4a4.81,4.81,0,0,0-4-4.74V.8A.8.8,0,1,0,7.2.8v.86a4.81,4.81,0,0,0-4,4.74V11L.8,13H15.2Z"/>
            <path d="M8,16a2,2,0,0,0,2-2H6A2,2,0,0,0,8,16Z"/>
        </g>
    </symbol>

    <symbol id="notification-off" viewBox="0 0 16 16">
        <g>
            <path d="M8.35,16a2,2,0,0,0,2-2h-4A2,2,0,0,0,8.35,16Z"/>
            <path d="M13.15,6.4a4.81,4.81,0,0,0-4-4.74V.8a.8.8,0,1,0-1.6,0v.86a4.79,4.79,0,0,0-2.24,1l7.84,7.84Z"/>
            <path d="M3.55,6.4V11l-2.4,2H12l1.89,1.89.91-.91L1.91,1.1,1,2,3.83,4.84A4.64,4.64,0,0,0,3.55,6.4Z"/>
        </g>
    </symbol>

    <symbol id="pin" viewBox="0 0 16 16">
        <g>
            <path d="M13.17,9.78H8.83L8,16,7.17,9.78H2.83V8.56c0-1.3,2.78-2.36,2.78-2.36L6.09,1.63A1.45,1.45,0,0,1,4.84,0h6.33A1.41,1.41,0,0,1,9.91,1.63L10.35,6.2s2.82,1,2.82,2.36V9.78Z"/>
        </g>
    </symbol>

    <symbol id="pin-delete" viewBox="0 0 16 16">
        <g>
            <path d="M1.11,2L5.39,6.3c-0.66.28-2.56,1.2-2.56,2.27V9.78H7.17L8,16,8.83,9.78h0L14,14.89,14.89,14,2,1.11Z"/>
            <path d="M6.09,1.63L5.93,3.2,12.5,9.78h0.67V8.56c0-1.34-2.82-2.36-2.82-2.36L9.91,1.63A1.41,1.41,0,0,0,11.16,0H4.84A1.45,1.45,0,0,0,6.09,1.63Z"/>
        </g>
    </symbol>

    <symbol id="post" viewBox="0 0 16 16">
        <g>
            <path d="M14.67 0H1.33A1.34 1.34 0 0 0 0 1.35v10.32A1.34 1.34 0 0 0 1.33 13H4l5 3v-3h5.69A1.34 1.34 0 0 0 16 11.68V1.35A1.34 1.34 0 0 0 14.67 0z"/>
        </g>
    </symbol>

    <symbol id="status" viewBox="0 0 16 16">
        <g>
            <path id="Shape_3_copy_7" data-name="Shape 3 copy 7" d="M14.67,0.68H1.33A1.34,1.34,0,0,0,0,2v8.67A1.34,1.34,0,0,0,1.33,12h6L6.7,15.32,12,12h2.67A1.34,1.34,0,0,0,16,10.72V2A1.34,1.34,0,0,0,14.67.68Z"/>
        </g>
    </symbol>

    <symbol id="idea" viewBox="0 0 16 16">
        <g>
            <path d="M6,15a3.41,3.41,0,0,0,2,1,3.41,3.41,0,0,0,2-1V14H6v1Zm4-2c0-3.49,3.86-4.9,3.58-8.37C13.41,2.46,11.93,0,8,0S2.59,2.46,2.42,4.65C2.14,8.12,6,9.53,6,13h4Z"/>
        </g>
    </symbol>

    <symbol id="poll" viewBox="0 0 16 16">
        <g>
            <rect y="10" width="4" height="6"/>
            <rect x="6" width="4" height="16"/>
            <rect x="12" y="4" width="4" height="12"/>
        </g>
    </symbol>

    <symbol id="question" viewBox="0 0 16 16">
        <g>
            <path d="M10.34,0.48A5.34,5.34,0,0,0,8,0,12.89,12.89,0,0,0,5.54.17,12.12,12.12,0,0,0,3.83.57C3.55,0.66,3.5.63,3.5,0.93V3a9.44,9.44,0,0,1,3.33-.66c1.09,0,2.47.17,2.65,1.51C9.77,6,6.81,6.54,6,8a4.19,4.19,0,0,0-.48,2v1h3V10.14a2.36,2.36,0,0,1,.56-1.4A16.38,16.38,0,0,1,11.14,7,3.61,3.61,0,0,0,12.5,4,4.12,4.12,0,0,0,10.34.48Z"/>
            <rect x="5.5" y="13" width="3" height="3"/>
        </g>
    </symbol>

    <symbol id="info" viewBox="0 0 16 16">
        <g>
            <path d="M8,0a8,8,0,1,0,8,8A8,8,0,0,0,8,0ZM6.87,3.76a0.32,0.32,0,0,1,.37-0.3H8.76a0.32,0.32,0,0,1,.37.3v1.4a0.35,0.35,0,0,1-.37.33H7.23a0.35,0.35,0,0,1-.37-0.33V3.76ZM9.13,6.94v5.27a0.35,0.35,0,0,1-.37.33H7.24a0.35,0.35,0,0,1-.37-0.33V6.84h0V6.76a0.32,0.32,0,0,1,.37-0.3H8.77a0.32,0.32,0,0,1,.37.3V6.94Z"/>
        </g>
    </symbol>

    <symbol id="read-status" viewBox="0 0 16 16">
        <g>
            <path class="delivered" fill="currentColor"
                  d="M9.78,3.75a0.18,0.18,0,0,0-.13,0L3.78,9.42,1.52,7.35a0.18,0.18,0,0,0-.25,0L0,8.55a0.16,0.16,0,0,0,0,.24l2.35,2.16,0,0L3.67,12.2a0.18,0.18,0,0,0,.25,0l7.26-6.94a0.16,0.16,0,0,0,0-.24L9.91,3.8A0.18,0.18,0,0,0,9.78,3.75Z"/>
            <path class="read-all" d="M15.92,5L14.65,3.8a0.18,0.18,0,0,0-.25,0L8.52,9.42,8,9l-1.5,1.44,0.58,0.54,0,0L8.41,12.2a0.18,0.18,0,0,0,.25,0l7.26-6.94A0.16,0.16,0,0,0,15.92,5Z"/>
        </g>
    </symbol>

    <symbol id="reset" viewBox="0 0 16 16">
        <g>
            <path d="M12.2,9.59a4.2,4.2,0,1,1-4.26-4.2V8.58l5.36-4.29L7.95,0V3.18a6.41,6.41,0,1,0,6.47,6.41H12.2Z"/>
        </g>
    </symbol>

    <symbol id="search" viewBox="0 0 16 16">
        <g>
            <path d="M0.22,14.76l1,1a1,1,0,0,0,1.36,0l3.85-3.85a6.23,6.23,0,0,0,3.15.85A6.6,6.6,0,0,0,16,6.27,6.27,6.27,0,0,0,9.74,0,6.6,6.6,0,0,0,3.28,6.46a6.23,6.23,0,0,0,.91,3.25L0.36,13.54A0.82,0.82,0,0,0,.22,14.76Zm5-8.31A4.59,4.59,0,0,1,9.72,2,4.19,4.19,0,0,1,14,6.25,4.6,4.6,0,0,1,9.54,10.8,4.34,4.34,0,0,1,5.2,6.46Z"/>
        </g>
    </symbol>

    <symbol id="apply" viewBox="0 0 16 16">
        <g>
            <path d="M15.93,3.76L14.13,2a0.26,0.26,0,0,0-.36,0L5.42,10,2.21,7.08a0.26,0.26,0,0,0-.36,0L0.07,8.78a0.23,0.23,0,0,0,0,.34l3.34,3.07,0,0.05L5.26,14a0.26,0.26,0,0,0,.36,0L15.93,4.1A0.23,0.23,0,0,0,15.93,3.76Z"/>
        </g>
    </symbol>

    <symbol id="shout" viewBox="0 0 16 16">
        <g>
            <path d="M14.72,5.37C13.25,2.1,10.88-.39,9.68.07c-2,.79,1.21,4.58-8.79,8.45A1.94,1.94,0,0,0,.17,11a2.22,2.22,0,0,0,2.41,1.26L3.27,12c0.62,0.79,1.26.32,1.49,0.82l1.08,2.36a1,1,0,0,0,1,.74l1.91-.69a0.59,0.59,0,0,0,.41-0.82C9,14.13,8.42,14,8.25,13.68s-0.72-1.54-.87-1.91,0.24-.91.9-1c4.55-.45,5.4,2.23,7,1.63C16.44,11.95,16.19,8.63,14.72,5.37Zm-0.51,5.3c-0.27.1-2.06-1.24-3.2-3.78s-1-4.86-.73-5,2,1.52,3.16,4.06S14.47,10.56,14.21,10.67Z"/>
        </g>
    </symbol>

    <symbol id="video" viewBox="0 0 16 16">
        <g>
            <path d="M0,0V16H16V0H0ZM3.5,14h-2V12h2v2Zm0-5h-2V7h2V9Zm0-5h-2V2h2V4ZM11,14H5V2h6V14Zm3.5,0h-2V12h2v2Zm0-5h-2V7h2V9Zm0-4.93h-2V2h2V4Z"/>
        </g>
    </symbol>

    <symbol id="visibility" viewBox="0 0 16 16">
        <g>
            <path d="M8,2.55A8.6,8.6,0,0,0,0,8,8.59,8.59,0,0,0,16,8,8.6,8.6,0,0,0,8,2.55Zm0,9.09A3.64,3.64,0,1,1,11.64,8,3.64,3.64,0,0,1,8,11.64ZM8,5.82A2.18,2.18,0,1,0,10.18,8,2.18,2.18,0,0,0,8,5.82Z"/>
        </g>
    </symbol>


    <symbol id="visibility-off" viewBox="0 0 16 16">
        <g>
            <path d="M8,4a3.64,3.64,0,0,1,3.64,3.64A3.53,3.53,0,0,1,11.38,9l2.12,2.12A8.6,8.6,0,0,0,16,7.64,8.61,8.61,0,0,0,8,2.18a8.47,8.47,0,0,0-2.9.51L6.67,4.26A3.53,3.53,0,0,1,8,4ZM0.73,2L2.39,3.67,2.72,4A8.59,8.59,0,0,0,0,7.64a8.6,8.6,0,0,0,11.19,4.85l0.31,0.31,2.13,2.12L14.55,14,1.65,1.09Zm4,4L5.88,7.16a2.05,2.05,0,0,0-.06.47A2.18,2.18,0,0,0,8,9.82a2.05,2.05,0,0,0,.47-0.06L9.6,10.89A3.61,3.61,0,0,1,4.75,6Zm3.14-.57,2.29,2.29V7.64A2.18,2.18,0,0,0,8,5.46H7.89Z"/>
        </g>
    </symbol>

    <symbol id="warning" viewBox="0 0 16 16">
        <g>
            <path d="M16,13.86a2.17,2.17,0,0,0-.17-0.63h0L9.63,1.07h0a1.82,1.82,0,0,0-3.26,0h0L0.19,13.22h0a2,2,0,0,0,1.68,2.84H14.13A2,2,0,0,0,16,13.86ZM7,10.21V4.65A0.34,0.34,0,0,1,7.33,4.3H8.68A0.34,0.34,0,0,1,9,4.65V4.53q0,2.89,0,5.78H9v0.09a0.31,0.31,0,0,1-.32.31H7.33A0.31,0.31,0,0,1,7,10.41V10.21Zm2,3.36a0.31,0.31,0,0,1-.32.31H7.34A0.31,0.31,0,0,1,7,13.58V12.1a0.34,0.34,0,0,1,.32-0.35H8.69A0.34,0.34,0,0,1,9,12.1v1.48Z"/>
        </g>
    </symbol>

    <symbol id="minimize" viewBox="0 0 16 16">
        <g>
            <rect x="2" y="6.5" width="12" height="3"/>
        </g>
    </symbol>

    <symbol id="minimize-small" viewBox="0 0 16 16">
        <g>
            <rect x="5.53" y="6.96" width="4.93" height="2.09"/>
        </g>
    </symbol>

    <symbol id="favourite" viewBox="0 0 16 16">
        <g>
            <path d="M3.66,10.15L2.84,15a0.59,0.59,0,0,0,.85.62L8,13.3l4.31,2.27a0.58,0.58,0,0,0,.27.07A0.58,0.58,0,0,0,13.16,15l-0.82-4.8,3.49-3.4a0.58,0.58,0,0,0-.32-1l-4.82-.7L8.52,0.69a0.59,0.59,0,0,0-1,0L5.32,5.06l-4.82.7a0.58,0.58,0,0,0-.32,1Z"/>
        </g>
    </symbol>

    <symbol id="list" viewBox="0 0 16 16">
        <g>
            <path d="M3,0.44v3H0v-3H3Zm13,0v3H6v-3H16Zm-13,6v3H0v-3H3Zm13,0v3H6v-3H16Zm-13,6v3H0v-3H3Zm13,0v3H6v-3H16Z"/>
        </g>
    </symbol>

    <symbol id="location" viewBox="0 0 16 16">
        <g>
            <path d="M8,0A6.15,6.15,0,0,0,1.85,6.15C1.85,9.55,8,16,8,16s6.15-6.45,6.15-9.85A6.15,6.15,0,0,0,8,0ZM8,8.62a3.08,3.08,0,1,1,3.08-3.08A3.08,3.08,0,0,1,8,8.62Z"/>
        </g>
    </symbol>

    <symbol id="note-edit" viewBox="0 0 16 16">
        <g>
            <path d="M4,9.5V12H6.5l7.37-7.37-2.5-2.5ZM15.81,2.69a0.66,0.66,0,0,0,0-.94L14.25,0.19a0.66,0.66,0,0,0-.94,0L12.09,1.41l2.5,2.5Z"/>
            <path d="M13.49,14.5h-11V1.5H9.88L11,0.41,11.38,0H1.47A0.47,0.47,0,0,0,1,.47V15.53a0.47,0.47,0,0,0,.47.47H14.53A0.47,0.47,0,0,0,15,15.53V5.63l-1.5,1.5V14.5Z"/>
        </g>
    </symbol>

    <symbol id="time" viewBox="0 0 16 16">
        <g>
            <path d="M8,16A8,8,0,1,0,0,8,8,8,0,0,0,8,16ZM8,1.6A6.4,6.4,0,1,1,1.6,8,6.42,6.42,0,0,1,8,1.6Z"/>
            <polygon points="12 10.32 8.4 8.16 8.4 4 8.4 4 7.2 4 7.2 8.8 11.36 11.36 12 10.32"/>
        </g>
    </symbol>

    <symbol id="help" viewBox="0 0 16 16">
        <g>
            <path d="M8,.5A7.5,7.5,0,1,1,.5,8,7.5,7.5,0,0,1,8,.5M8,0a8,8,0,1,0,8,8A8,8,0,0,0,8,0Z"/>
            <path d="M7.76,11a1,1,0,1,0,.69.29A.95.95,0,0,0,7.76,11Z"/>
            <path d="M10,3.72A3.27,3.27,0,0,0,7.85,3a4.34,4.34,0,0,0-2.31.63.8.8,0,0,0-.43.7.7.7,0,0,0,.21.5.69.69,0,0,0,.49.21.89.89,0,0,0,.47-.14,2.62,2.62,0,0,1,1.46-.37c1.38,0,1.54.64,1.54,1.12a.76.76,0,0,1-.15.45,5.2,5.2,0,0,1-.9.83A2.87,2.87,0,0,0,7,9.28a.69.69,0,0,0,.23.52.78.78,0,0,0,.54.21.84.84,0,0,0,.54-.19.77.77,0,0,0,.26-.63.89.89,0,0,1,.14-.46,3.59,3.59,0,0,1,.92-.93,2.68,2.68,0,0,0,1.27-2.17A2.37,2.37,0,0,0,10,3.72Z"/>
        </g>
    </symbol>

    <symbol id="private-message" viewBox="0 0 16 16">
        <g>
            <path d="M14.67 0H1.33A1.34 1.34 0 0 0 0 1.33v10.32A1.34 1.34 0 0 0 1.33 13H4l5 3v-3h5.69A1.34 1.34 0 0 0 16 11.66V1.33A1.34 1.34 0 0 0 14.67 0zM11.6 9.63a.6.6 0 0 1-.6.6H4.89a.6.6 0 0 1-.6-.6V6.12a.6.6 0 0 1 .6-.6h.4v-.88A2.67 2.67 0 0 1 8.14 2a2.73 2.73 0 0 1 2.49 2.76v.8H11a.6.6 0 0 1 .6.6z"/>
            <path d="M7.92 3.27a1.62 1.62 0 0 0-1.53 1.64v.62h3.15v-.69a1.57 1.57 0 0 0-1.62-1.57z"/>
        </g>
    </symbol>

    <symbol id="grid" viewBox="0 0 16 16">
        <g>
            <rect x="0.02" width="7" height="7"/>
            <rect x="9.02" width="7" height="7"/>
            <rect x="0.02" y="9" width="7" height="7"/>
            <rect x="9.02" y="9" width="7" height="7"/>
        </g>
    </symbol>

    <symbol id="archive" viewBox="0 0 16 16">
        <g>
            <path d="M11,8H5V6H1v8a1,1,0,0,0,1,1H14a1,1,0,0,0,1-1V6H11Z"/>
            <rect y="1" width="16" height="4" rx="0.5" ry="0.5"/>
        </g>
    </symbol>

    <symbol id="filter" viewBox="0 0 16 16">
        <g>
            <path d="M5.93,2.5a2,2,0,0,0-3.86,0H0v1H2.07a2,2,0,0,0,3.86,0H16v-1ZM4,4a1,1,0,0,1-.85-.5A1,1,0,0,1,3,3a1,1,0,0,1,.15-.5,1,1,0,0,1,1.69,0A1,1,0,0,1,5,3a1,1,0,0,1-.15.5A1,1,0,0,1,4,4Z"/>
            <path d="M12,6a2,2,0,0,0-1.93,1.5H0v1H10.07a2,2,0,0,0,3.86,0H16v-1H13.93A2,2,0,0,0,12,6Zm0,3a1,1,0,0,1-.85-.5.89.89,0,0,1,0-1,1,1,0,0,1,1.69,0,.89.89,0,0,1,0,1A1,1,0,0,1,12,9Z"/>
            <path d="M6,11a2,2,0,0,0-1.93,1.5H0v1H4.07a2,2,0,0,0,3.86,0H16v-1H7.93A2,2,0,0,0,6,11Zm0,3a1,1,0,0,1-.85-.5.89.89,0,0,1,0-1,1,1,0,0,1,1.69,0,.89.89,0,0,1,0,1A1,1,0,0,1,6,14Z"/>
        </g>
    </symbol>

    <symbol id="export" viewBox="0 0 16 16">
        <g>
            <polygon points="14 14 2 14 2 2 6 2 6 0 0 0 0 16 16 16 16 10 14 10 14 14"/>
            <polygon points="10 0 10 2 12.97 2 7.75 7.22 9.16 8.64 14 3.8 14 6 16 6 16 0 10 0"/>
        </g>
    </symbol>

    <symbol id="folder-move" viewBox="0 0 16 16">
        <g>
            <path d="M.53,16H15.47a.53.53,0,0,0,.53-.53V1.87a.54.54,0,0,0-.53-.54H6.84L5.51,0h-5A.53.53,0,0,0,0,.53V15.47A.53.53,0,0,0,.53,16Z"/>
            <polygon points="13.01 8.58 8.12 4.51 8.12 7.51 3 7.51 3 9.51 8.12 9.51 8.12 12.49 13.01 8.58" style="fill:#fff"/>
        </g>
    </symbol>
</svg>